<svg width="41" height="42" viewBox="0 0 41 42" fill="none" xmlns="http://www.w3.org/2000/svg">
<path d="M20.5 0.6875C16.4826 0.6875 12.5554 1.87881 9.21499 4.11077C5.87462 6.34274 3.27111 9.51512 1.73371 13.2267C0.196301 16.9384 -0.205954 21.0225 0.577808 24.9628C1.36157 28.903 3.29615 32.5224 6.1369 35.3631C8.97766 38.2039 12.597 40.1384 16.5372 40.9222C20.4775 41.706 24.5616 41.3037 28.2733 39.7663C31.9849 38.2289 35.1573 35.6254 37.3892 32.285C39.6212 28.9446 40.8125 25.0174 40.8125 21C40.8068 15.6145 38.6649 10.4513 34.8568 6.64317C31.0487 2.83507 25.8855 0.693187 20.5 0.6875ZM20.5 38.1875C17.1006 38.1875 13.7776 37.1795 10.9511 35.2909C8.12468 33.4023 5.92171 30.718 4.62083 27.5774C3.31995 24.4368 2.97958 20.9809 3.64276 17.6469C4.30595 14.3128 5.9429 11.2503 8.34661 8.8466C10.7503 6.44289 13.8128 4.80594 17.1469 4.14275C20.4809 3.47957 23.9368 3.81994 27.0774 5.12082C30.218 6.4217 32.9023 8.62467 34.7909 11.4511C36.6795 14.2776 37.6875 17.6006 37.6875 21C37.6823 25.5568 35.8699 29.9255 32.6477 33.1477C29.4255 36.3699 25.0568 38.1823 20.5 38.1875ZM29.1758 10.2266L16.6758 16.4766C16.3736 16.6284 16.1284 16.8736 15.9766 17.1758L9.72657 29.6758C9.60732 29.9141 9.551 30.1789 9.56297 30.4451C9.57493 30.7113 9.65477 30.9701 9.79491 31.1967C9.93505 31.4234 10.1308 31.6104 10.3636 31.7401C10.5964 31.8697 10.8585 31.9377 11.125 31.9375C11.3676 31.9371 11.6068 31.881 11.8242 31.7734L24.3242 25.5234C24.6264 25.3716 24.8716 25.1264 25.0234 24.8242L31.2734 12.3242C31.4209 12.0307 31.4721 11.6982 31.4198 11.374C31.3675 11.0497 31.2144 10.7502 30.9821 10.5179C30.7499 10.2856 30.4503 10.1325 30.1261 10.0802C29.8018 10.0279 29.4693 10.0791 29.1758 10.2266ZM22.4531 22.9531L14.6191 26.8809L18.5469 19.0469L26.3887 15.127L22.4531 22.9531Z" fill="#CEB992"/>
</svg>
