<svg xmlns="http://www.w3.org/2000/svg" width="338.137" height="55.668" viewBox="0 0 338.137 55.668"><g fill="#333"><path d="M226.067 17.5a17.177 17.177 0 00-8.139-1.591q-1.678 0-6.5.242l-3.854.192v.795h.692a5.478 5.478 0 012.306.3 1.55 1.55 0 01.692 1.121 24.032 24.032 0 01.164 3.623v11.3a25.035 25.035 0 01-.164 3.742 1.753 1.753 0 01-.742 1.183 4.041 4.041 0 01-2.085.381h-.968v.8h10.388a42.978 42.978 0 004.53-.183 12.793 12.793 0 003.4-.916 9.144 9.144 0 003.144-2.144 9.9 9.9 0 002.137-3.543 13.736 13.736 0 00.776-4.71 13.356 13.356 0 00-1.425-6.283 10.321 10.321 0 00-4.352-4.309zm.7 17.139a6.924 6.924 0 01-3.292 3.3 12.942 12.942 0 01-5.03.838 5.981 5.981 0 01-2.74-.4 1.827 1.827 0 01-.779-1.409q-.13-1-.13-4.477V16.827q1.349-.089 2.664-.087a15.8 15.8 0 014.475.527 7.472 7.472 0 013.18 1.986 9.6 9.6 0 012.2 3.795 16.9 16.9 0 01.769 5.306 13.226 13.226 0 01-1.316 6.286zm7.807-17.691h.5a5.44 5.44 0 012.315.31 1.537 1.537 0 01.692 1.123 24.851 24.851 0 01.158 3.612v11.5a26.117 26.117 0 01-.158 3.742 1.72 1.72 0 01-.733 1.183 4.035 4.035 0 01-2.085.381h-.689v.8h10.715v-.8h-.69a3.893 3.893 0 01-2.153-.416 1.838 1.838 0 01-.692-1.269 30.791 30.791 0 01-.13-3.621v-11.5a21.947 21.947 0 01.183-3.7 1.5 1.5 0 01.717-1.062 5.674 5.674 0 012.265-.285h.5v-.8h-10.715zm30.145 0q2.819.068 2.817 2.057a15.057 15.057 0 01-1.365 4.233l-5.411 12.948-6.74-15.557a8.575 8.575 0 01-.815-2.349 1.041 1.041 0 01.648-1.055 7.55 7.55 0 012.534-.276v-.8h-10.1v.8a4.148 4.148 0 012.4.6 5.39 5.39 0 011.418 2.231c.32.82.557 1.395.708 1.728l8.089 18.635h1.073l6.964-16.559 1.58-3.682a6.032 6.032 0 011.436-2.178 2.941 2.941 0 011.918-.776v-.8h-7.154zm8.193 0h.5a5.44 5.44 0 012.315.31 1.537 1.537 0 01.692 1.123 24.842 24.842 0 01.158 3.612v11.5a26.107 26.107 0 01-.158 3.742 1.72 1.72 0 01-.733 1.183 4.035 4.035 0 01-2.084.381h-.69v.8h10.715v-.8h-.69a3.893 3.893 0 01-2.153-.416 1.838 1.838 0 01-.692-1.269 30.791 30.791 0 01-.13-3.621v-11.5a21.947 21.947 0 01.183-3.7 1.5 1.5 0 01.717-1.062 5.674 5.674 0 012.265-.285h.5v-.8h-10.715z"/><path d="M326.465 41.918a.464.464 0 00-.055-.011.247.247 0 00-.244.167c-.068.164-1.749 4.071-7.119 3.785-3.849-.221-7.977-5.21-8.014-5.26l-3.68-4.927c-.016-.893-.025-1.719-.025-2.253V21.197a12.781 12.781 0 01.162-2.651 1.954 1.954 0 011.027-1.046 6.209 6.209 0 012.516-.6v-.782h-8.6v.783a5.693 5.693 0 012.753.525 2.219 2.219 0 011.114 1.158 10.926 10.926 0 01.194 2.616v13.318l-10.132-13.564c-.317-.5-7.717-12.265-15.2-12.7-6.879-.4-7.957 5.422-7.968 5.48a.276.276 0 00.169.3.228.228 0 00.064.009.248.248 0 00.242-.151c.073-.158 1.8-3.842 6.877-3.55.112.007.226.014.34.027 3.224.29 7.333 5.253 7.365 5.292l.8 1.064a157.6 157.6 0 01.114 5.507v12.219a12.8 12.8 0 01-.162 2.651 1.954 1.954 0 01-1.027 1.046 6.22 6.22 0 01-2.516.6v.783h8.6v-.783a5.693 5.693 0 01-2.753-.525 2.218 2.218 0 01-1.114-1.158 10.934 10.934 0 01-.194-2.616V18.005c.516.728 1.5 1.975 1.5 1.975l15.774 20.9c2.521 3.112 5.276 6.336 11.315 7.089a2.7 2.7 0 00.276.011c6.881.139 7.774-5.71 7.781-5.772a.265.265 0 00-.18-.29z"/><path d="M334.463 18.858a13.32 13.32 0 00-9.151-3.249 12.981 12.981 0 00-9.057 3.285 11.17 11.17 0 00-3.632 8.71 11.708 11.708 0 003.58 8.938 14.264 14.264 0 0018.416 0 11.663 11.663 0 003.518-8.817 11.233 11.233 0 00-3.674-8.867zm-2.6 17.356a7.631 7.631 0 01-6.258 2.833q-4.51 0-6.767-2.833t-2.256-8.489q0-5.565 2.256-8.409a8.845 8.845 0 0113.059.069q2.264 2.914 2.263 8.374 0 5.62-2.297 8.454zM80.187 26.859a9.886 9.886 0 004.97-1.865 4.544 4.544 0 001.651-3.664q0-5.531-9.612-5.532l-4.388.139-3.854.1v.8h.448a5.386 5.386 0 012.308.311 1.6 1.6 0 01.692 1.142 24.724 24.724 0 01.164 3.68v11.409a26.638 26.638 0 01-.155 3.742 1.735 1.735 0 01-.735 1.183 4.035 4.035 0 01-2.084.381h-.9v.795h9.194a24.379 24.379 0 005.489-.493 6.064 6.064 0 003.361-2.091 5.809 5.809 0 001.315-3.811 5.4 5.4 0 00-1.936-4.235 9.991 9.991 0 00-5.928-1.991zm-4.235-10.162q.709-.051 1.384-.05A8.778 8.778 0 0181 17.19a3.627 3.627 0 011.607 1.548 6.081 6.081 0 01.536 2.833 4.777 4.777 0 01-1.365 3.8q-1.367 1.175-5.1 1.174c-.2 0-.438 0-.728-.016zm7 20.553a5.542 5.542 0 01-4.143 1.414 3.3 3.3 0 01-2.084-.466 2.14 2.14 0 01-.648-1.365q-.12-.9-.121-4.235v-5.219q.692-.034 1.315-.034 3.942 0 5.5 1.374a5.4 5.4 0 011.564 4.276 5.866 5.866 0 01-1.383 4.254zm21.176-21.642a12.991 12.991 0 00-9.057 3.285 11.168 11.168 0 00-3.63 8.71 11.7 11.7 0 003.578 8.936 14.264 14.264 0 0018.416 0 11.654 11.654 0 003.518-8.815 11.228 11.228 0 00-3.674-8.865 13.3 13.3 0 00-9.151-3.251zm6.55 20.6a7.626 7.626 0 01-6.258 2.836q-4.51 0-6.767-2.836T95.4 27.722q0-5.565 2.253-8.409a8.847 8.847 0 0113.059.071q2.264 2.911 2.263 8.374 0 5.616-2.296 8.453zm26.03-3.386q-3.267-4.4-4.735-5.114a8.463 8.463 0 004.977-2.023 5.242 5.242 0 001.694-3.925 4.836 4.836 0 00-1.3-3.386 7.286 7.286 0 00-3.4-2.041 19.642 19.642 0 00-5.452-.623q-1.969 0-5.324.158l-3.352.171v.8h.4a5.452 5.452 0 012.317.311 1.542 1.542 0 01.692 1.123 24.979 24.979 0 01.155 3.612v11.5a26.276 26.276 0 01-.155 3.742 1.727 1.727 0 01-.735 1.183 4.031 4.031 0 01-2.082.381h-.76v.795h11.218v-.795h-1.12a3.884 3.884 0 01-2.151-.415 1.831 1.831 0 01-.694-1.269 31.541 31.541 0 01-.128-3.621v-5.2h.932a2.45 2.45 0 011.4.32 11.862 11.862 0 011.642 1.781q1.192 1.462 2.3 3.05 3.455 4.98 5.135 6.153h6.306v-.795a6.315 6.315 0 01-3.594-1.176 23.75 23.75 0 01-4.186-4.697zm-7.26-5.548c-.92.048-1.815.082-2.678.105V16.662a17.913 17.913 0 011.468-.068q4.151 0 5.386 1.486a5.992 5.992 0 011.235 3.959 6.826 6.826 0 01-.363 2.384 4.076 4.076 0 01-.993 1.564 4.118 4.118 0 01-1.651.909 9.975 9.975 0 01-2.406.378zm38.24 3.035c.114 0 .217-.009.34-.009v-.829h-.34z"/><path d="M157.916 29.471v.829h.555a5.619 5.619 0 011.9.217 1.419 1.419 0 01.769.845 8.126 8.126 0 01.251 2.516 5.858 5.858 0 01-.536 2.662 4.273 4.273 0 01-2 1.79 7.217 7.217 0 01-3.267.735 7.621 7.621 0 01-5.877-2.6q-2.37-2.6-2.368-8.84 0-6.257 2.454-8.712a7.884 7.884 0 015.756-2.454 7.636 7.636 0 015.436 2.11 9.321 9.321 0 012.74 5.721h.829v-7.832h-.829a8.256 8.256 0 01-.726 2.61 9.965 9.965 0 00-7.779-3.457 10.7 10.7 0 00-8.642 3.785 13.286 13.286 0 00-3.18 8.815 11.36 11.36 0 0011.7 11.7 15.536 15.536 0 005.445-1.105 10.523 10.523 0 013.491-.813 4.616 4.616 0 01.744.069v-2.489a22.043 22.043 0 01.19-3.811 1.661 1.661 0 01.785-1.123 4.588 4.588 0 011.934-.329v-.838zm25.461-13.863a13 13 0 00-9.057 3.285 11.175 11.175 0 00-3.63 8.71 11.7 11.7 0 003.578 8.936 14.268 14.268 0 0018.418 0 11.661 11.661 0 003.516-8.815 11.234 11.234 0 00-3.671-8.866 13.3 13.3 0 00-9.154-3.25zm6.55 20.6a7.626 7.626 0 01-6.258 2.836q-4.51 0-6.767-2.836t-2.253-8.486q0-5.565 2.253-8.409a8.847 8.847 0 0113.06.071q2.264 2.911 2.265 8.374.004 5.616-2.296 8.453z"/><path d="M9.573 48.88a27.213 27.213 0 003.686 2.677 1.057 1.057 0 00.155.093c.113.068.224.14.338.206a1.265 1.265 0 00.14.084 26.955 26.955 0 0026.833 0 1.015 1.015 0 00.118-.07c.122-.07.239-.147.36-.22a1.066 1.066 0 00.154-.093 27.158 27.158 0 003.689-2.677.949.949 0 00.123-.111c.082-.072.16-.147.242-.22a1.447 1.447 0 00.173-.157 26.895 26.895 0 008.189-26.056.636.636 0 00-.024-.1 26.92 26.92 0 00-1.469-4.549v-.018h0c-.059-.137-.133-.266-.193-.4a.638.638 0 00-.053-.108A27.2 27.2 0 0030.326 1.373a.159.159 0 00-.038-.005c-.173-.019-.347-.032-.521-.047a.617.617 0 00-.07 0c-.785-.068-1.576-.12-2.379-.12s-1.593.053-2.379.12a.616.616 0 00-.07 0c-.174.015-.348.028-.521.047a.146.146 0 00-.037.005A27.2 27.2 0 002.593 17.162a.615.615 0 00-.053.109c-.06.136-.134.264-.193.4h-.005v.02a26.887 26.887 0 00-1.467 4.547.7.7 0 00-.026.1 26.9 26.9 0 008.189 26.055 1.309 1.309 0 00.175.159c.081.073.159.149.241.22m30.33-3.249a20.156 20.156 0 01-11.642 1.5c.474-.118.95-.232 1.41-.38a15.475 15.475 0 007.345-5.095 15.46 15.46 0 007.116-5.413c.284-.391.54-.808.8-1.222A20.181 20.181 0 0139.78 45.52zm-12.47-3.68l-.013-.045.013-.045.013.045zm18.01-8.5c.033-.487.073-.973.073-1.457a15.487 15.487 0 00-2.575-8.561 15.487 15.487 0 00-2.949-8.438c-.287-.394-.6-.764-.917-1.137a20.168 20.168 0 018.534 8.058 20.167 20.167 0 01-2.17 11.529zM7.134 21.801a20.173 20.173 0 018.533-8.058c-.312.373-.63.743-.916 1.137a15.487 15.487 0 00-2.949 8.438 15.477 15.477 0 00-2.575 8.561c0 .484.038.971.073 1.457a20.167 20.167 0 01-2.166-11.535zM36.685 41.26a15.077 15.077 0 01-8.719.516h0a10.4 10.4 0 005.744-4.608 10.4 10.4 0 006.158-4.04h0a15.075 15.075 0 01-3.184 8.132zm-18.749 0a15.079 15.079 0 01-3.186-8.132h0a10.394 10.394 0 006.158 4.04 10.387 10.387 0 005.744 4.608h0a15.084 15.084 0 01-8.716-.516zm1.581-23.63c.179-.067.361-.129.543-.188a10.046 10.046 0 016.834.23 10.42 10.42 0 00-3.863 3.223 5.31 5.31 0 00-.507.873 5.466 5.466 0 00-.989.213 10.419 10.419 0 00-4.258 2.679 10.057 10.057 0 011.891-6.571q.17-.233.349-.458zm15.586 0q.179.227.348.458a10.063 10.063 0 011.893 6.571 10.436 10.436 0 00-4.26-2.679 5.429 5.429 0 00-.987-.213 5.388 5.388 0 00-.507-.873 10.42 10.42 0 00-3.863-3.223 10.046 10.046 0 016.834-.23c.181.06.363.123.542.19zm5.17 14.25h0a10.387 10.387 0 00-2.608-6.886 10.39 10.39 0 00-1.937-7.105h0a15.071 15.071 0 016.745 5.539 15.072 15.072 0 01-2.2 8.452zm-.355.575a15.9 15.9 0 01-.329.473 10.054 10.054 0 01-5.665 3.83 10.4 10.4 0 001.232-4.877 5.27 5.27 0 00-.1-1.005 5.239 5.239 0 00.675-.754 10.4 10.4 0 001.871-4.669 10.047 10.047 0 012.332 6.428 27.22 27.22 0 01-.014.573zm-6.431 4.409a10.06 10.06 0 01-5.15-.28 5.1 5.1 0 01-.681-.3 5.313 5.313 0 002.369-4.19 5.244 5.244 0 001.409.2 5.317 5.317 0 003.306-1.168 5.063 5.063 0 01.072.749 10.083 10.083 0 01-1.322 4.988zm-12.359 0a10.084 10.084 0 01-1.325-4.984 5.066 5.066 0 01.073-.749 5.327 5.327 0 003.306 1.168 5.228 5.228 0 001.407-.2 5.319 5.319 0 002.37 4.19 5.043 5.043 0 01-.682.3 10.082 10.082 0 01-5.147.274zm-6.442-4.984a10.053 10.053 0 012.33-6.428 10.42 10.42 0 001.872 4.669 5.239 5.239 0 00.675.754 5.312 5.312 0 00-.1 1.005 10.426 10.426 0 001.231 4.877 10.056 10.056 0 01-5.664-3.83 13.251 13.251 0 01-.329-.473c-.009-.19-.013-.382-.013-.574zm-2.547-8.451a15.092 15.092 0 016.749-5.542h0l.07.052h0l-.07-.051a10.4 10.4 0 00-1.939 7.105 10.392 10.392 0 00-2.607 6.886h0a15.073 15.073 0 01-2.2-8.451zm17.514 8.158a2.377 2.377 0 01-1.364-1.877 2.375 2.375 0 011.367 1.876zm5.3-1.11a5.311 5.311 0 00-3.25-3.548 5.314 5.314 0 00.544-4.78 4.848 4.848 0 01.727.161 10.062 10.062 0 014.329 2.8 10.058 10.058 0 01-1.857 4.811 4.945 4.945 0 01-.489.555zm-3.85-3.352a2.378 2.378 0 01-2.206.717 2.388 2.388 0 012.21-.718zm-3.8-2.758a2.377 2.377 0 010 2.319 2.37 2.37 0 01.007-2.32zm-1.528 3.556h0l-.015-.065h0l.015.067zm-2.269-.8a2.381 2.381 0 012.206.717 2.377 2.377 0 01-2.199-.716zm2.91 2.552h0l-.068-.006h0zm-1.461 1.91a2.375 2.375 0 011.364-1.876 2.37 2.37 0 01-1.356 1.877zm-5.782-1.666a10.072 10.072 0 01-1.858-4.811 10.074 10.074 0 014.331-2.8 4.813 4.813 0 01.727-.161 5.31 5.31 0 00.544 4.78 5.316 5.316 0 00-3.251 3.548 5.067 5.067 0 01-.493-.556zm8.921-.233zm3.222-8.589l.07-.051h0l-.07.051a4.9 4.9 0 01.375.64 5.3 5.3 0 00-4.377 2 5.31 5.31 0 00-4.378-2 4.949 4.949 0 01.376-.642 10.083 10.083 0 014-3.252 10.083 10.083 0 013.999 3.254zm-6.383 10.888a2.724 2.724 0 001.75-2.284.317.317 0 00-.073-.237.326.326 0 00-.219-.117.358.358 0 00-.156.024l.04.1-.008-.017h0l-.035-.079a2.724 2.724 0 00-1.631 2.371 4.959 4.959 0 01-4.656-.992 4.96 4.96 0 013.181-3.538 2.725 2.725 0 002.119 1.024 2.8 2.8 0 00.6-.065.324.324 0 00.172-.53 2.73 2.73 0 00-2.759-.819 4.959 4.959 0 01-.5-4.734 4.957 4.957 0 014.35 1.933 2.724 2.724 0 00-.074 2.877.322.322 0 00.2.149.3.3 0 00.082.012.328.328 0 00.278-.16h0a2.724 2.724 0 00-.074-2.877 4.965 4.965 0 014.35-1.933 4.96 4.96 0 01-.5 4.734 2.725 2.725 0 00-2.759.819.325.325 0 00.031.458.306.306 0 00.141.07h0a2.8 2.8 0 00.6.065 2.725 2.725 0 002.119-1.024 4.96 4.96 0 013.181 3.538 4.956 4.956 0 01-4.656.992 2.724 2.724 0 00-1.631-2.371.322.322 0 00-.426.169.332.332 0 00-.024.159h0a2.725 2.725 0 001.75 2.284 4.965 4.965 0 01-2.382 4.122 4.963 4.963 0 01-2.386-4.123zm8.657 5.046l-.012-.051.045.026.012.051zm1.633-19.537l-.036.028.015-.044.037-.029zm4.373-2.412a15.14 15.14 0 012.84 7.7 15.438 15.438 0 00-7.118-5.436 15.44 15.44 0 00-7.369-5.09 15.134 15.134 0 018.2.323 20.615 20.615 0 012.058.8 20.753 20.753 0 011.384 1.702zm-4.93 2.031h0l-.028.083h0l.027-.083a10.387 10.387 0 00-7.355.353 10.383 10.383 0 00-7.356-.353l.027.083h0l-.027-.083h0a15.071 15.071 0 017.356-4.707 15.073 15.073 0 017.356 4.707zm-16.188-4.541a15.135 15.135 0 018.2-.324 15.445 15.445 0 00-7.369 5.091 15.431 15.431 0 00-7.118 5.436 15.129 15.129 0 012.84-7.7 20.5 20.5 0 011.392-1.711 20.875 20.875 0 012.056-.789zm-8.907 19.3a15.129 15.129 0 012.225-7.9 15.413 15.413 0 002.565 8.58 15.414 15.414 0 002.95 8.423 15.109 15.109 0 01-6.423-5.053 20.566 20.566 0 01-1.2-1.853 20.454 20.454 0 01-.115-2.189zm17.186 9.57a10.059 10.059 0 01-5.388-4.2 10.2 10.2 0 005.016-.342 5.272 5.272 0 00.924-.408 5.367 5.367 0 00.924.408 10.2 10.2 0 005.016.342 10.058 10.058 0 01-5.389 4.2c-.183.059-.366.115-.551.166a5.7 5.7 0 01-.551-.158zm16.973-5.515a15.127 15.127 0 01-6.423 5.053 15.414 15.414 0 002.95-8.423 15.43 15.43 0 002.565-8.58 15.125 15.125 0 012.227 7.9 20.386 20.386 0 01-.122 2.2 20.47 20.47 0 01-1.196 1.858zm-28.891 9.586a20.165 20.165 0 01-5.025-10.6c.256.412.511.827.8 1.222a15.472 15.472 0 007.114 5.413 15.488 15.488 0 007.345 5.095c.46.149.936.263 1.41.38A20.159 20.159 0 0114.84 45.52zm22.772-32.752c-.451-.182-.9-.369-1.365-.52a15.453 15.453 0 00-8.936-.2 15.475 15.475 0 00-8.936.2c-.465.151-.914.338-1.365.52a20.173 20.173 0 0110.3-5.626 20.168 20.168 0 0110.302 5.634zM25.178 46.313a15.14 15.14 0 01-6.825-4.561 15.27 15.27 0 008.957.215 15.27 15.27 0 008.957-.215 15.14 15.14 0 01-6.825 4.561 20.487 20.487 0 01-2.132.565 20.319 20.319 0 01-2.132-.565zm18.553-34.24a20.337 20.337 0 013.637 8.886 20.508 20.508 0 00-8.963-7.874 20.517 20.517 0 00-10.257-6.091 20.334 20.334 0 019.575.713 25.47 25.47 0 013.535 1.451 25.532 25.532 0 012.473 2.915zm-26.834-4.36a20.333 20.333 0 019.576-.718 20.508 20.508 0 00-10.257 6.091 20.518 20.518 0 00-8.965 7.874 20.354 20.354 0 013.638-8.886 25.57 25.57 0 012.473-2.914 25.47 25.47 0 013.535-1.447zm-6.286 4.164a20.671 20.671 0 00-3.812 9.821A20.672 20.672 0 004.11 31.884a25.69 25.69 0 00.173 2.839 25.243 25.243 0 01-2.1-14.524A25.238 25.238 0 0112.419 9.683a25.508 25.508 0 00-1.808 2.189zM4.453 31.884a20.337 20.337 0 012.281-9.326 20.517 20.517 0 002.624 11.636 20.51 20.51 0 004.715 10.952 20.321 20.321 0 01-7.327-6.2 25.391 25.391 0 01-2.008-3.254 25.451 25.451 0 01-.284-3.812zm2.02 7.261a20.689 20.689 0 008.164 6.66 20.688 20.688 0 008.853 5.708 25.8 25.8 0 002.754.712 25.262 25.262 0 01-14.464-2.491 25.255 25.255 0 01-6.839-12.986 26.163 26.163 0 001.532 2.397zM31.13 51.513a20.688 20.688 0 008.856-5.706 20.7 20.7 0 008.164-6.66 25.88 25.88 0 001.528-2.4 25.246 25.246 0 01-6.839 12.986 25.24 25.24 0 01-14.466 2.489 25.8 25.8 0 002.757-.709zm16.743-12.57a20.333 20.333 0 01-7.327 6.205 20.518 20.518 0 004.719-10.958 20.515 20.515 0 002.624-11.636 20.353 20.353 0 012.281 9.326 25.451 25.451 0 01-.288 3.809 25.174 25.174 0 01-2.009 3.254zm2.639-7.063a20.679 20.679 0 00-2.689-10.186 20.658 20.658 0 00-3.812-9.821 25.72 25.72 0 00-1.808-2.2A25.274 25.274 0 0152.44 20.191a25.259 25.259 0 01-2.1 14.523 25.7 25.7 0 00.169-2.834zM40.473 8.423a25.853 25.853 0 00-2.647-1.041 20.709 20.709 0 00-10.518-.59 20.7 20.7 0 00-10.518.59 26.087 26.087 0 00-2.647 1.041 25.262 25.262 0 0113.164-6.486 25.267 25.267 0 0113.166 6.486zm-16.876 42.76a20.35 20.35 0 01-8.18-5.064 20.508 20.508 0 007.731 1.539 20.753 20.753 0 004.162-.425 20.743 20.743 0 004.162.425 20.508 20.508 0 007.731-1.539 20.354 20.354 0 01-8.178 5.064 25.541 25.541 0 01-3.715.905 25.484 25.484 0 01-3.713-.905zm28.241-33.824c.161.593.3 1.2.414 1.808A25.6 25.6 0 0041.463 8.879a25.607 25.607 0 00-13.12-7.082c.64-.078 1.286-.141 1.93-.17a26.945 26.945 0 0121.564 15.732zM24.348 1.626c.644.029 1.289.092 1.93.17a25.6 25.6 0 00-13.12 7.082A25.594 25.594 0 002.373 19.167c.118-.607.252-1.211.414-1.808a26.945 26.945 0 0121.56-15.733zM.406 28.357a26.894 26.894 0 01.544-5.389h0c.232-.621.5-1.232.78-1.835a25.6 25.6 0 002.681 14.666 25.611 25.611 0 006.406 13.39c-.5-.279-1-.557-1.479-.867A26.816 26.816 0 01.406 28.357zm13.52 23.306c-.452-.365-.88-.766-1.31-1.164a25.572 25.572 0 0010.52 2.277 25.933 25.933 0 004.173-.341 25.945 25.945 0 004.173.341 25.6 25.6 0 0010.52-2.277c-.43.4-.857.8-1.311 1.165a26.691 26.691 0 01-26.766 0zm31.355-3.342c-.478.31-.978.589-1.479.867a25.594 25.594 0 006.406-13.389 25.6 25.6 0 002.681-14.665c.282.6.548 1.214.78 1.834h0a26.809 26.809 0 01-8.388 25.353z" stroke="#fff" stroke-width=".3"/><g transform="translate(.273)"><path d="M1.493 18.66a1.493 1.493 0 101.494 1.493 1.495 1.495 0 00-1.494-1.493zM27.091 0a1.494 1.494 0 101.493 1.494A1.5 1.5 0 0027.091 0z"/><circle cx="1.494" cy="1.494" r="1.494" transform="translate(51.087 18.39)"/><path d="M42.885 48.537a1.493 1.493 0 101.494 1.493 1.495 1.495 0 00-1.494-1.493zm-31.506-.121a1.493 1.493 0 101.493 1.493 1.5 1.5 0 00-1.493-1.493zm20.444-34.507a1.129 1.129 0 10-1.128 1.128 1.13 1.13 0 001.128-1.128zm13.614-.198a1.129 1.129 0 101.129 1.128 1.129 1.129 0 00-1.129-1.128zm-1.243 15.202a1.129 1.129 0 10-1.129-1.129 1.129 1.129 0 001.129 1.129zM11.01 27.035a1.129 1.129 0 10-1.129 1.128 1.131 1.131 0 001.129-1.128zm20.416 17.372a1.129 1.129 0 101.129 1.129 1.13 1.13 0 00-1.129-1.129zm-20.737-3.435a1.129 1.129 0 10-1.129-1.129 1.13 1.13 0 001.129 1.129zm34.067.308a1.129 1.129 0 101.128 1.128 1.129 1.129 0 00-1.128-1.128zM20.088 8.766a1.129 1.129 0 101.129 1.129 1.131 1.131 0 00-1.129-1.129z"/></g></g></svg>