<svg width="376" height="24" viewBox="0 0 376 24" fill="none" xmlns="http://www.w3.org/2000/svg">
<g clip-path="url(#clip0_15_118)">
<path d="M175.01 8.84C176.28 10.33 174.54 12.9 172.59 12.79C170.63 12.67 169.19 10.73 168.92 8.79C168.43 5.27 171.16 1.71999 174.63 0.959994C178.1 0.199995 181.88 2.08 183.68 5.14C185.48 8.2 185.38 12.19 183.75 15.35C182.12 18.5 179.09 20.82 175.73 21.96C170.73 23.64 164.64 22.56 161.24 18.53C157.84 14.5 157.08 7.82999 160.24 1.89999L9.53 1.89998" stroke="white" stroke-width="1.57" stroke-linecap="round" stroke-linejoin="round"/>
<path d="M0.790039 1.89996C0.790039 4.30996 2.75003 6.26996 5.16003 6.26996C7.57003 6.26996 9.53003 4.30996 9.53003 1.89996" stroke="white" stroke-width="1.57" stroke-linecap="round" stroke-linejoin="round"/>
<path d="M200.75 8.83998C199.48 10.33 201.22 12.9 203.17 12.79C205.13 12.67 206.57 10.73 206.84 8.78998C207.33 5.26998 204.6 1.71998 201.13 0.959981C197.66 0.199981 193.88 2.07998 192.08 5.13998C190.28 8.19998 190.38 12.19 192.01 15.35C193.64 18.5 196.67 20.82 200.03 21.96C205.03 23.64 211.12 22.56 214.52 18.53C217.92 14.5 218.68 7.82998 215.52 1.89998L366.24 1.9" stroke="white" stroke-width="1.57" stroke-linecap="round" stroke-linejoin="round"/>
<path d="M374.97 1.90002C374.97 4.31002 373.01 6.27002 370.6 6.27002C368.19 6.27002 366.23 4.31002 366.23 1.90002" stroke="white" stroke-width="1.57" stroke-linecap="round" stroke-linejoin="round"/>
</g>
<defs>
<clipPath id="clip0_15_118">
<rect width="375.76" height="23.5" fill="white" transform="translate(375.76 23.5) rotate(-180)"/>
</clipPath>
</defs>
</svg>
