<svg width="304" height="153" viewBox="0 0 304 153" fill="none" xmlns="http://www.w3.org/2000/svg">
<path d="M0.791133 53V52.37H1.91113C5.48113 52.37 6.04113 51.32 6.25113 47.4L8.14113 7.01C8.14113 6.52 8.14113 6.03 8.14113 5.54C8.14113 4 7.72113 3.3 4.71113 3.3H1.91113V2.67H12.2011L30.3311 42.78C30.9611 44.18 31.3811 45.37 31.3811 45.79H31.7311C31.7311 45.37 32.2211 43.83 32.7111 42.78L50.8411 2.67H61.3411V3.3H58.9611C55.5311 3.3 55.0411 4.35 55.0411 6.38C55.0411 6.94 55.0411 7.57 55.1111 8.27L56.7211 47.4C56.8611 51.39 57.3511 52.37 61.2011 52.37H62.7411V53H44.4711V52.37H46.9911C50.7711 52.37 51.2611 51.39 51.2611 49.71C51.2611 49.36 51.2611 48.94 51.2611 48.45L49.8611 11.56C49.7911 10.3 49.7911 9.25 49.7911 8.48H49.3711C49.3711 8.69 48.8811 9.88 48.2511 11.35L29.4211 53.28L29.2111 53.77H29.0711L28.8611 53.28L10.3111 12.12C9.68113 10.72 9.54113 9.39 9.54113 9.18H9.26113C9.26113 9.81 9.26113 10.3 9.19113 11.56L7.44113 48.31C7.37113 48.94 7.30113 49.5 7.30113 49.92C7.30113 51.6 7.93113 52.37 11.7811 52.37H14.3011V53H0.791133ZM64.5852 53V52.37H67.0352C70.3952 52.37 70.7452 52.09 70.7452 48.73V6.94C70.7452 3.58 70.3952 3.3 67.0352 3.3H64.5852V2.67H82.4352V3.44H79.9852C76.6252 3.44 76.2052 3.72 76.2052 7.08V48.73C76.2052 52.09 76.6252 52.37 79.9852 52.37H82.4352V53H64.5852ZM86.0779 27.66C86.0779 12.33 95.8079 2.11 110.508 2.11C115.198 2.11 119.748 3.58 123.318 6.59C123.668 6.94 123.948 7.5 124.088 7.99L124.578 7.85C124.438 7.29 124.368 6.59 124.368 5.82L124.228 0.779996L124.858 0.709997L125.488 20.94L124.228 21.01L124.018 14.5C123.668 8.2 116.878 3.3 109.948 3.3C98.4679 3.3 92.3079 11.49 92.3079 26.54C92.3079 43.34 98.7479 52.3 110.718 52.3C117.368 52.3 123.808 48.66 126.258 42.78L127.448 43.2C124.648 50.2 117.928 53.56 110.578 53.56C95.8779 53.56 86.0779 43.2 86.0779 27.66ZM130.552 53V52.37H133.002C136.362 52.37 136.712 51.39 136.712 48.03V7.64C136.712 4.28 136.362 3.3 133.002 3.3H130.552V2.67H147.772V3.3H145.952C142.592 3.3 142.172 4.28 142.172 7.64V25.91H161.352V7.64C161.352 4.28 160.932 3.3 157.572 3.3H155.752V2.67H173.042V3.3H170.522C167.162 3.3 166.812 4.28 166.812 7.64V48.03C166.812 51.39 167.162 52.37 170.522 52.37H173.042V53H155.752V52.37H157.642C161.002 52.37 161.352 51.39 161.352 48.03V27.17H142.172V48.03C142.172 51.39 142.592 52.37 145.952 52.37H147.772V53H130.552ZM198.074 38.58H197.444V34.73C197.444 28.01 193.804 27.24 189.884 27.24H187.084V48.03C187.084 49.57 186.384 50.83 185.544 51.67V51.74H199.474C206.194 51.74 209.414 49.01 209.904 42.29L210.324 36.69H211.444L210.254 55.66H209.624L209.834 52.37H209.764C209.274 52.86 208.294 53 207.174 53H175.464V52.37H177.914C181.274 52.37 181.624 52.02 181.624 48.66V7.01C181.624 3.65 181.274 3.3 177.914 3.3H175.464V2.67H203.394C204.514 2.67 205.494 2.81 205.984 3.3H206.054L205.844 0.0799971L206.474 0.00999796L207.734 18.98H206.474L206.194 14.08C205.774 6.52 202.134 3.93 195.414 3.93H185.544V4C186.384 4.84 187.084 6.1 187.084 7.64V25.98H189.884C193.804 25.98 197.444 25.28 197.444 18.56V16.11H198.074V38.58ZM232.637 2.67H249.017V3.3H246.217C242.857 3.3 242.507 3.65 242.507 7.01V36.83C242.507 38.37 241.807 39.63 240.967 40.47V40.54H252.797C259.517 40.54 262.667 37.81 263.227 31.09L263.437 28.5H264.557L262.737 56.57L262.037 56.5L262.317 52.37H262.247C261.757 52.86 261.477 53 260.357 53H214.087V52.37H216.537C219.897 52.37 220.247 51.53 220.247 48.17V6.94C220.247 3.58 219.897 3.3 216.537 3.3H214.087V2.67H230.187V3.3H229.487C226.127 3.3 225.707 3.58 225.707 6.94V48.03C225.707 49.57 225.007 50.83 224.167 51.67V51.74H250.417C257.137 51.74 261.617 50.41 262.177 43.69L262.317 41.59C261.827 41.8 261.127 41.8 260.497 41.8H230.887V41.17H233.337C236.697 41.17 237.047 40.82 237.047 37.46V7.01C237.047 3.65 236.697 3.3 233.337 3.3H232.637V2.67ZM290.086 38.58H289.456V34.73C289.456 28.01 285.816 27.24 281.896 27.24H279.096V48.03C279.096 49.57 278.396 50.83 277.556 51.67V51.74H291.486C298.206 51.74 301.426 49.01 301.916 42.29L302.336 36.69H303.456L302.266 55.66H301.636L301.846 52.37H301.776C301.286 52.86 300.306 53 299.186 53H267.476V52.37H269.926C273.286 52.37 273.636 52.02 273.636 48.66V7.01C273.636 3.65 273.286 3.3 269.926 3.3H267.476V2.67H295.406C296.526 2.67 297.506 2.81 297.996 3.3H298.066L297.856 0.0799971L298.486 0.00999796L299.746 18.98H298.486L298.206 14.08C297.786 6.52 294.146 3.93 287.426 3.93H277.556V4C278.396 4.84 279.096 6.1 279.096 7.64V25.98H281.896C285.816 25.98 289.456 25.28 289.456 18.56V16.11H290.086V38.58Z" fill="white"/>
<path d="M140.131 88.4C139.678 88.4 139.251 88.2933 138.851 88.08C138.478 87.8667 138.198 87.4667 138.011 86.88C137.931 86.64 137.891 86.3067 137.891 85.88C137.891 85.2933 137.971 84.64 138.131 83.92C138.291 83.2 138.464 82.5867 138.651 82.08C138.518 82.1333 138.264 82.3733 137.891 82.8C137.544 83.2 137.104 83.6933 136.571 84.28C136.064 84.84 135.491 85.4133 134.851 86C134.238 86.56 133.598 87.0267 132.931 87.4C132.264 87.7733 131.611 87.96 130.971 87.96C130.544 87.96 130.091 87.84 129.611 87.6C129.131 87.3333 128.744 87 128.451 86.6C128.051 86.0667 127.851 85.52 127.851 84.96C127.851 84.24 128.091 83.4933 128.571 82.72C129.078 81.9467 129.718 81.2 130.491 80.48C131.291 79.7333 132.131 79.0667 133.011 78.48C133.918 77.8667 134.771 77.36 135.571 76.96C136.398 76.5333 137.064 76.2533 137.571 76.12C138.104 75.96 138.704 75.88 139.371 75.88C139.744 75.88 140.131 75.9333 140.531 76.04C140.931 76.12 141.264 76.2667 141.531 76.48C141.744 76.5867 141.918 76.7333 142.051 76.92C142.184 77.1067 142.251 77.3067 142.251 77.52C142.251 77.7333 142.158 77.8 141.971 77.72C141.758 77.4 141.464 77.2 141.091 77.12C140.744 77.0133 140.384 76.96 140.011 76.96C138.944 76.96 137.771 77.3067 136.491 78C135.211 78.6933 134.064 79.5067 133.051 80.44C132.731 80.7067 132.291 81.1733 131.731 81.84C131.198 82.48 130.704 83.1867 130.251 83.96C129.798 84.7333 129.571 85.44 129.571 86.08C129.571 86.4267 129.664 86.7333 129.851 87C129.958 87.1867 130.131 87.28 130.371 87.28C130.744 87.28 131.238 87.08 131.851 86.68C132.491 86.28 133.144 85.8 133.811 85.24C134.478 84.6533 135.078 84.0933 135.611 83.56C136.171 83.0267 136.571 82.64 136.811 82.4C136.944 82.2667 137.198 82 137.571 81.6C137.971 81.1733 138.398 80.72 138.851 80.24C139.304 79.76 139.704 79.3467 140.051 79C140.424 78.6533 140.664 78.48 140.771 78.48C140.904 78.48 141.118 78.52 141.411 78.6C141.731 78.6533 141.998 78.7467 142.211 78.88C142.424 79.0133 142.464 79.1867 142.331 79.4C141.638 80.4133 141.078 81.48 140.651 82.6C140.251 83.6933 140.011 84.56 139.931 85.2C139.904 85.3067 139.891 85.4133 139.891 85.52C139.891 85.6 139.891 85.6933 139.891 85.8C139.891 86.8667 140.264 87.4 141.011 87.4C141.411 87.4 141.944 87.16 142.611 86.68C143.278 86.2 143.958 85.6267 144.651 84.96C145.344 84.2933 145.971 83.6533 146.531 83.04C147.118 82.4 147.518 81.92 147.731 81.6C147.811 81.52 147.891 81.48 147.971 81.48C148.078 81.48 148.171 81.5333 148.251 81.64C148.331 81.72 148.331 81.8267 148.251 81.96C147.958 82.44 147.531 83.0133 146.971 83.68C146.411 84.3467 145.784 85.0133 145.091 85.68C144.398 86.3467 143.718 86.92 143.051 87.4C142.704 87.6667 142.264 87.8933 141.731 88.08C141.198 88.2933 140.664 88.4 140.131 88.4ZM145.416 88.52C145.229 88.52 145.176 88.4267 145.256 88.24C145.336 88.08 145.483 87.72 145.696 87.16C145.909 86.5733 146.149 85.88 146.416 85.08C146.709 84.28 147.003 83.4533 147.296 82.6C147.589 81.7467 147.856 80.9467 148.096 80.2C148.363 79.4533 148.576 78.8667 148.736 78.44C148.789 78.28 148.843 78.0533 148.896 77.76C148.949 77.44 149.056 77.16 149.216 76.92C149.403 76.6533 149.709 76.52 150.136 76.52C150.936 76.52 151.336 76.7067 151.336 77.08C151.336 77.2133 151.269 77.44 151.136 77.76C150.816 78.48 150.469 79.3067 150.096 80.24C149.723 81.1733 149.389 82.0533 149.096 82.88C148.803 83.7067 148.576 84.3467 148.416 84.8C148.683 84.4267 149.109 83.8933 149.696 83.2C150.309 82.5067 150.989 81.76 151.736 80.96C152.483 80.16 153.256 79.3867 154.056 78.64C154.883 77.8933 155.643 77.2933 156.336 76.84C157.056 76.36 157.669 76.12 158.176 76.12C158.816 76.12 159.136 76.4667 159.136 77.16C159.136 77.4 159.069 77.76 158.936 78.24C158.696 78.9067 158.389 79.56 158.016 80.2C157.643 80.8133 157.309 81.4667 157.016 82.16C156.509 83.4133 156.216 84.4267 156.136 85.2C156.109 85.3067 156.096 85.4133 156.096 85.52C156.096 85.6 156.096 85.6933 156.096 85.8C156.096 86.8667 156.456 87.4 157.176 87.4C157.576 87.4 158.109 87.16 158.776 86.68C159.443 86.2 160.123 85.6267 160.816 84.96C161.536 84.2933 162.176 83.6533 162.736 83.04C163.296 82.4 163.683 81.92 163.896 81.6C163.976 81.52 164.056 81.48 164.136 81.48C164.243 81.48 164.323 81.52 164.376 81.6C164.456 81.68 164.469 81.7867 164.416 81.92C164.176 82.3733 163.763 82.9467 163.176 83.64C162.616 84.3067 161.989 84.9867 161.296 85.68C160.603 86.3467 159.923 86.92 159.256 87.4C158.856 87.6667 158.363 87.9067 157.776 88.12C157.189 88.3333 156.603 88.4267 156.016 88.4C155.269 88.32 154.736 88.0667 154.416 87.64C154.096 87.1867 153.936 86.6533 153.936 86.04C153.936 85.32 154.069 84.56 154.336 83.76C154.629 82.9333 154.949 82.16 155.296 81.44C155.643 80.72 155.923 80.1733 156.136 79.8C156.349 79.3733 156.456 79.04 156.456 78.8C156.456 78.5867 156.363 78.48 156.176 78.48C155.989 78.48 155.709 78.6 155.336 78.84C154.963 79.08 154.456 79.4933 153.816 80.08C153.229 80.5867 152.603 81.2533 151.936 82.08C151.269 82.88 150.616 83.7067 149.976 84.56C149.363 85.4133 148.816 86.1467 148.336 86.76C147.883 87.3733 147.563 87.7333 147.376 87.84C147.243 87.92 146.936 88.0533 146.456 88.24C146.003 88.4267 145.656 88.52 145.416 88.52ZM173.988 92.36C173.295 92.2533 172.801 91.92 172.508 91.36C172.215 90.8 172.068 90.1067 172.068 89.28C172.068 88.2933 172.201 87.2267 172.468 86.08C172.761 84.9333 173.095 83.8533 173.468 82.84C173.841 81.8267 174.135 81.0533 174.348 80.52C173.735 81.24 173.028 82.0267 172.228 82.88C171.455 83.7333 170.641 84.5467 169.788 85.32C168.935 86.0933 168.108 86.7333 167.308 87.24C166.535 87.72 165.855 87.96 165.268 87.96C164.841 87.96 164.388 87.84 163.908 87.6C163.428 87.3333 163.041 87 162.748 86.6C162.348 86.0667 162.148 85.52 162.148 84.96C162.148 84.24 162.388 83.4933 162.868 82.72C163.375 81.9467 164.015 81.2 164.788 80.48C165.588 79.7333 166.428 79.0667 167.308 78.48C168.215 77.8667 169.068 77.36 169.868 76.96C170.695 76.5333 171.361 76.2533 171.868 76.12C172.135 76.0667 172.415 76.0133 172.708 75.96C173.001 75.9067 173.308 75.88 173.628 75.88C174.028 75.88 174.428 75.9333 174.828 76.04C175.228 76.12 175.561 76.2667 175.828 76.48L175.988 76.6C176.628 75.1333 177.335 73.6533 178.108 72.16C178.881 70.64 179.708 69.2533 180.588 68C181.468 66.7467 182.401 65.7467 183.388 65C184.375 64.2267 185.401 63.84 186.468 63.84C186.601 63.84 186.735 63.8533 186.868 63.88C187.001 63.88 187.121 63.8933 187.228 63.92C187.895 64.0533 188.361 64.2933 188.628 64.64C188.921 64.96 189.068 65.3467 189.068 65.8C189.068 66.12 189.001 66.4667 188.868 66.84C188.761 67.1867 188.601 67.5333 188.388 67.88C187.801 68.92 187.028 69.9467 186.068 70.96C185.135 71.9733 184.108 72.96 182.988 73.92C181.868 74.8533 180.748 75.76 179.628 76.64C178.535 77.52 177.535 78.3467 176.628 79.12C176.228 80.0533 175.828 81.1467 175.428 82.4C175.028 83.6533 174.695 84.72 174.428 85.6C174.268 86.24 174.135 86.84 174.028 87.4C173.948 87.96 173.908 88.48 173.908 88.96C173.908 89.84 174.068 90.56 174.388 91.12C174.655 91.5467 174.988 91.76 175.388 91.76C175.681 91.76 175.948 91.6533 176.188 91.44C176.295 91.3867 176.388 91.32 176.468 91.24C176.575 91.16 176.695 91.08 176.828 91C176.988 90.92 177.121 90.88 177.228 90.88C177.415 90.88 177.428 91.0267 177.268 91.32C177.188 91.4 177.095 91.4933 176.988 91.6C176.881 91.7333 176.761 91.8667 176.628 92C176.441 92.1333 176.161 92.24 175.788 92.32C175.415 92.4 175.041 92.44 174.668 92.44C174.561 92.44 174.441 92.4267 174.308 92.4C174.201 92.4 174.095 92.3867 173.988 92.36ZM177.828 76.84C178.895 76.12 180.055 75.2267 181.308 74.16C182.561 73.0667 183.735 71.9067 184.828 70.68C185.921 69.4267 186.761 68.24 187.348 67.12C187.695 66.48 187.868 65.9733 187.868 65.6C187.868 65.1467 187.668 64.92 187.268 64.92C186.895 64.92 186.401 65.1333 185.788 65.56C184.001 66.9467 182.495 68.6 181.268 70.52C180.041 72.4133 178.895 74.52 177.828 76.84ZM164.148 87C164.281 87.16 164.455 87.24 164.668 87.24C165.068 87.24 165.535 87.0667 166.068 86.72C166.628 86.3733 167.001 86.1067 167.188 85.92C168.548 84.8267 169.908 83.6533 171.268 82.4C172.655 81.12 173.948 79.84 175.148 78.56C175.255 78.32 175.348 78.0933 175.428 77.88C175.508 77.64 175.601 77.4133 175.708 77.2C175.308 77.04 174.841 76.96 174.308 76.96C173.241 76.96 172.068 77.3067 170.788 78C169.508 78.6933 168.361 79.5067 167.348 80.44C167.028 80.7067 166.588 81.1733 166.028 81.84C165.495 82.48 165.001 83.1867 164.548 83.96C164.095 84.7333 163.868 85.44 163.868 86.08C163.868 86.4267 163.961 86.7333 164.148 87Z" fill="#FDF0E0"/>
<path d="M24.6827 149V148.37H25.8027C29.3727 148.37 29.9327 147.32 30.1427 143.4L32.0327 103.01C32.0327 102.52 32.0327 102.03 32.0327 101.54C32.0327 100 31.6127 99.3 28.6027 99.3H25.8027V98.67H36.0927L54.2227 138.78C54.8527 140.18 55.2727 141.37 55.2727 141.79H55.6227C55.6227 141.37 56.1127 139.83 56.6027 138.78L74.7327 98.67H85.2327V99.3H82.8527C79.4227 99.3 78.9327 100.35 78.9327 102.38C78.9327 102.94 78.9327 103.57 79.0027 104.27L80.6127 143.4C80.7527 147.39 81.2427 148.37 85.0927 148.37H86.6327V149H68.3627V148.37H70.8827C74.6627 148.37 75.1527 147.39 75.1527 145.71C75.1527 145.36 75.1527 144.94 75.1527 144.45L73.7527 107.56C73.6827 106.3 73.6827 105.25 73.6827 104.48H73.2627C73.2627 104.69 72.7727 105.88 72.1427 107.35L53.3127 149.28L53.1027 149.77H52.9627L52.7527 149.28L34.2027 108.12C33.5727 106.72 33.4327 105.39 33.4327 105.18H33.1527C33.1527 105.81 33.1527 106.3 33.0827 107.56L31.3327 144.31C31.2627 144.94 31.1927 145.5 31.1927 145.92C31.1927 147.6 31.8227 148.37 35.6727 148.37H38.1927V149H24.6827ZM87.7768 149V148.37H88.8968C90.6468 148.37 91.6968 146.41 92.7468 144.03L112.347 98.67H117.807V99.51C117.807 100.91 118.087 102.73 118.437 103.57L134.957 144.03C136.357 147.39 136.777 148.37 139.087 148.37H139.647V149H126.277V148.37H131.667V148.23C130.757 147.88 129.987 146.13 129.497 144.94L125.577 135.35H97.8568L94.0768 144.03C93.7968 144.66 93.6568 145.15 93.6568 145.64C93.6568 147.32 94.9868 148.37 97.0868 148.37H100.517V149H87.7768ZM98.3468 134.09H125.017L113.187 104.9C112.697 103.78 112.627 102.87 112.627 102.1H111.997C111.997 102.52 111.787 103.43 111.157 104.9L98.3468 134.09ZM223.004 142.28C217.474 148.44 208.094 152.29 197.664 152.29C187.164 152.29 175.054 148.16 165.394 137.03L163.924 135.28C161.264 132.2 159.164 129.75 156.854 129.75H156.014V128.56H159.234C167.074 128.56 172.324 122.82 172.324 114.21C172.324 105.67 167.074 99.93 159.234 99.93H151.954V100C152.794 100.84 153.144 102.03 153.144 103.64V144.66C153.144 148.02 153.564 148.37 156.924 148.37H160.984V149H141.524V148.37H143.974C147.334 148.37 147.684 148.02 147.684 144.66V103.01C147.684 99.65 147.334 99.3 143.974 99.3H141.524V98.67H159.794C170.994 98.67 178.414 104.9 178.414 114.21C178.414 122.75 171.974 128.56 163.574 129.33L162.174 129.4V129.82C165.114 130.17 167.354 132.06 169.734 134.65C180.584 146.62 192.134 150.26 201.164 150.26C212.504 150.26 220.414 144.24 222.584 141.86L223.004 142.28ZM221.044 116.94L219.784 117.01L219.574 110.5C219.224 104.2 212.434 99.3 205.504 99.3C195.634 99.3 190.384 106.09 190.384 118.55C190.384 131.99 195.914 139.2 206.274 139.2C212.924 139.2 219.364 135.56 221.814 129.68L223.004 130.1C220.204 137.1 213.484 140.46 206.134 140.46C192.974 140.46 184.224 131.99 184.224 119.18C184.224 106.58 192.974 98.11 206.064 98.11C210.754 98.11 215.304 99.58 218.874 102.59C219.224 102.94 219.504 103.5 219.644 103.99L220.134 103.85C219.994 103.29 219.924 102.59 219.924 101.82L219.784 96.78L220.414 96.71L221.044 116.94ZM252.964 149.56C237.354 149.56 226.994 139.27 226.994 123.8C226.994 108.4 237.354 98.11 252.964 98.11C268.434 98.11 278.794 108.4 278.794 123.8C278.794 139.27 268.434 149.56 252.964 149.56ZM253.174 148.3C265.844 148.3 272.704 140.25 272.704 125.13C272.704 108.4 265.634 99.37 252.684 99.37C239.944 99.37 233.084 107.49 233.084 122.54C233.084 139.34 240.084 148.3 253.174 148.3Z" fill="white"/>
</svg>
